<svg width="627" height="200" viewBox="0 0 627 200" fill="none" xmlns="http://www.w3.org/2000/svg">
<path d="M226.541 33.5423C200.707 33.5423 181.143 51.6843 181.143 76.0099C181.143 100.335 200.837 118.477 226.163 118.477C241.345 118.477 253.26 111.929 260.909 102.727V100.962L245.858 88.1143H244.102C239.966 92.6498 233.565 96.0478 226.425 96.0478C215.264 96.0478 206.483 87.6039 206.483 76.0099C206.483 64.4159 215.264 55.9719 226.425 55.9719C233.58 55.9719 239.966 59.3699 244.102 63.9054H245.858L260.909 51.0572V49.2926C253.013 39.7112 240.59 33.5423 226.541 33.5423Z" fill="#2A2929"/>
<path d="M273.695 116.932H336.147V96.4124H298.528V84.8621H326.858V65.6117H298.528V54.0615H336.147V33.5423H273.695V116.932Z" fill="#2A2929"/>
<path d="M568.885 28.5257L601.627 16.1734V14.4088L592.977 0.043869H591.221L562.238 17.938V19.7026L567.129 28.5257H568.885Z" fill="#2A2929"/>
<path d="M614.297 88.0705L604.384 65.8451L589.973 33.5423H567.143L532.398 116.946H558.478L563.123 104.375H594.094C596.605 108.867 599.232 112.323 602.12 114.642C605.502 117.209 609.638 118.492 614.907 118.492C619.508 118.492 623.571 117.515 626.837 115.765L615.632 90.8852C615.197 90.0831 614.762 89.1643 614.283 88.0851L614.297 88.0705ZM569.393 87.6914L578.551 62.9283L587.201 87.6914H569.393Z" fill="#2A2929"/>
<path d="M427.291 88.0705L417.378 65.8451L402.967 33.5423H380.137L345.392 116.946H371.472L376.117 104.375H407.088C409.599 108.867 412.226 112.323 415.114 114.642C418.496 117.209 422.632 118.492 427.901 118.492C432.501 118.492 436.565 117.515 439.831 115.765L428.626 90.8852C428.191 90.0831 427.756 89.1643 427.277 88.0851L427.291 88.0705ZM382.386 87.6914L391.544 62.9283L400.194 87.6914H382.386Z" fill="#2A2929"/>
<path d="M506.186 84.2204C515.214 80.1079 521.237 72.291 521.237 61.3825C521.237 44.3196 509.699 33.5423 488.248 33.5423H449.627V116.946H474.46V87.6914H476.463C481.978 87.6914 487.116 99.1104 490.134 104.506C495.78 114.511 501.049 118.492 512.326 118.492C517.347 118.492 522.485 116.829 524.996 114.773L525.068 114.569L506.709 84.8184C506.535 84.6288 506.36 84.41 506.186 84.235V84.2204ZM487.246 71.0077H474.46V54.0761H487.246C491.891 54.0761 495.896 57.1532 495.896 62.7971C495.896 68.4409 491.876 71.0077 487.246 71.0077Z" fill="#2A2929"/>
<path d="M207.31 146.522C207.31 150.139 205.961 153.376 203.667 155.695C201.418 158.014 198.21 159.472 194.538 159.472C187.209 159.472 181.68 153.843 181.68 146.216C181.68 138.588 187.354 132.959 194.567 132.959C198.747 132.959 202.463 134.928 204.756 137.874V138.34L201.142 141.534H200.692C199.299 139.726 197.194 138.501 194.713 138.501C190.838 138.501 187.645 141.68 187.645 146.245C187.645 150.809 190.692 153.916 194.829 153.916C196.628 153.916 198.283 153.289 199.488 152.151C200.431 151.247 201.07 150.109 201.287 148.768H194.742V144.247H206.773L207.223 144.641C207.296 145.224 207.296 145.982 207.296 146.522H207.31Z" fill="#2A2929"/>
<path d="M211.94 146.216C211.94 138.618 217.978 132.959 225.917 132.959C233.856 132.959 239.864 138.618 239.864 146.216C239.864 153.814 233.827 159.472 225.917 159.472C218.007 159.472 211.94 153.799 211.94 146.216ZM233.638 146.216C233.638 141.695 230.227 138.501 225.917 138.501C221.606 138.501 218.196 141.68 218.196 146.216C218.196 150.751 221.606 153.93 225.917 153.93C230.227 153.93 233.638 150.707 233.638 146.216Z" fill="#2A2929"/>
<path d="M268.514 133.892L257.034 159.005H253.434L241.969 133.892L242.244 133.426H248.514L255.248 149.876L262.215 133.426H268.253L268.528 133.892H268.514Z" fill="#2A2929"/>
<path d="M279.254 138.443V143.766H288.891V148.564H279.254V153.96H291.779V158.991H273.144V133.411H291.706V138.443H279.254Z" fill="#2A2929"/>
<path d="M319.064 158.524L318.788 158.991H312.722L307.584 149.395H304.014V158.991H297.904V133.411H308.861C315.291 133.411 318.687 136.518 318.687 141.563C318.687 145.02 316.728 147.426 313.68 148.607L319.05 158.524H319.064ZM304.028 145.18H308.919C310.995 145.18 312.49 143.926 312.49 141.87C312.49 139.813 310.995 138.443 308.919 138.443H304.028V145.18Z" fill="#2A2929"/>
<path d="M347.714 133.426V159.122H343.911L330.994 143.897V159.005H324.927V133.426H328.73L341.618 148.651V133.426H347.728H347.714Z" fill="#2A2929"/>
<path d="M353.577 146.216C353.577 138.618 359.615 132.959 367.554 132.959C375.493 132.959 381.501 138.618 381.501 146.216C381.501 153.814 375.463 159.472 367.554 159.472C359.644 159.472 353.577 153.799 353.577 146.216ZM375.275 146.216C375.275 141.695 371.864 138.501 367.554 138.501C363.243 138.501 359.832 141.68 359.832 146.216C359.832 150.751 363.243 153.93 367.554 153.93C371.864 153.93 375.275 150.707 375.275 146.216Z" fill="#2A2929"/>
<path d="M421.921 146.172C421.921 153.887 416.754 159.005 408.525 159.005H397.408V133.426H408.525C416.754 133.426 421.921 138.545 421.921 146.172ZM415.695 146.216C415.695 141.374 412.72 138.457 408.336 138.457H403.518V153.96H408.336C412.72 153.96 415.695 151.043 415.695 146.201V146.216Z" fill="#2A2929"/>
<path d="M426.29 146.216C426.29 138.618 432.327 132.959 440.266 132.959C448.205 132.959 454.213 138.618 454.213 146.216C454.213 153.814 448.176 159.472 440.266 159.472C432.356 159.472 426.29 153.799 426.29 146.216ZM447.987 146.216C447.987 141.695 444.577 138.501 440.266 138.501C435.956 138.501 432.545 141.68 432.545 146.216C432.545 150.751 435.956 153.93 440.266 153.93C444.577 153.93 447.987 150.707 447.987 146.216Z" fill="#2A2929"/>
<path d="M476.23 138.443V143.766H485.867V148.564H476.23V153.96H488.756V158.991H470.12V133.411H488.683V138.443H476.23Z" fill="#2A2929"/>
<path d="M492.979 154.864V154.397L495.998 150.897H496.433C498.03 152.749 500.976 154.28 503.487 154.28C505.998 154.28 507.565 153.259 507.565 151.757C507.565 149.599 505.098 149.322 501.963 148.33C498.48 147.222 494.213 145.253 494.213 140.499C494.213 136.051 498.131 132.944 503.806 132.944C507.957 132.944 511.527 134.592 513.356 136.795V137.232L510.337 140.688H509.902C508.654 139.39 506.535 137.888 503.864 137.888C501.818 137.888 500.424 138.749 500.424 140.163C500.424 141.855 502.34 142.526 504.416 143.226C508.755 144.611 513.806 145.938 513.806 151.684C513.806 156.687 509.307 159.443 503.821 159.443C499.278 159.443 495.243 157.635 492.979 154.835V154.864Z" fill="#2A2929"/>
<path d="M531.077 159.005H524.923V138.457H516.941V133.426H539.059V138.457H531.077V159.005Z" fill="#2A2929"/>
<path d="M565.43 158.524L565.154 158.991H558.972L557.128 154.499H546.359L544.473 158.991H538.522L538.246 158.524L549.988 133.411H553.703L565.416 158.524H565.43ZM555.401 150.255L551.845 141.563L548.159 150.255H555.401Z" fill="#2A2929"/>
<path d="M594.559 146.172C594.559 153.887 589.392 159.005 581.163 159.005H570.045V133.426H581.163C589.392 133.426 594.559 138.545 594.559 146.172ZM588.332 146.216C588.332 141.374 585.357 138.457 580.974 138.457H576.156V153.96H580.974C585.357 153.96 588.332 151.043 588.332 146.201V146.216Z" fill="#2A2929"/>
<path d="M598.927 146.216C598.927 138.618 604.965 132.959 612.904 132.959C620.843 132.959 626.851 138.618 626.851 146.216C626.851 153.814 620.814 159.472 612.904 159.472C604.994 159.472 598.927 153.799 598.927 146.216ZM620.625 146.216C620.625 141.695 617.214 138.501 612.904 138.501C608.593 138.501 605.183 141.68 605.183 146.216C605.183 150.751 608.593 153.93 612.904 153.93C617.214 153.93 620.625 150.707 620.625 146.216Z" fill="#2A2929"/>
<path d="M134.337 82.4704C135.222 74.5369 140.81 69.0681 147.283 64.9409L148.429 64.2117L126.848 36.6632L126.398 36.5757C123.814 36.0799 121.231 35.6278 118.648 35.2194C110.767 34.1548 105.194 33.4402 100.332 32.959C98.9964 32.8423 97.6612 32.7256 96.3259 32.6381H96.1953L94.9907 32.5506H94.6714L94.3521 32.5069C91.3768 32.3027 88.387 32.1569 85.4118 32.0548H85.3828C85.0344 32.0402 84.6716 32.0256 84.3088 32.011C84.004 32.011 83.7137 32.011 83.4089 31.9964C72.4948 31.7631 62.8433 32.1277 55.9785 32.5506C53.5983 32.6965 38.214 34.2277 35.3548 34.5777C35.1952 34.5923 35.0355 34.6215 34.8904 34.6361C31.3926 35.1173 24.223 36.2403 21.596 36.6486L0 64.2117L1.14656 64.9409C7.60506 69.0681 13.2073 74.5223 14.0926 82.4704C14.9779 90.2581 10.7835 99.3145 7.85179 106.402C3.91864 115.896 0.261243 125.288 0.261243 135.744C0.261243 137.99 0.609566 140.207 1.26267 142.351C3.41067 149.307 8.75162 154.893 14.3683 159.341C20.9139 164.518 28.519 168.776 35.8918 172.699C43.5549 176.783 51.4938 180.648 58.8812 185.168C63.8157 188.187 70.3903 192.65 73.1044 197.871L74.2074 200L75.3104 197.871C78.0244 192.65 84.599 188.202 89.5191 185.168C96.921 180.648 104.86 176.783 112.523 172.699C119.896 168.762 127.501 164.518 134.046 159.341C139.663 154.893 145.004 149.307 147.152 142.351C147.805 140.207 148.154 137.99 148.154 135.744C148.154 125.303 144.496 115.911 140.563 106.402C137.631 99.3145 133.451 90.2581 134.322 82.4704" fill="white"/>
<path fill-rule="evenodd" clip-rule="evenodd" d="M100.622 5.25003L104.976 5.92087L105.019 3.28123L100.622 5.25003Z" fill="#EAD6B0"/>
<path fill-rule="evenodd" clip-rule="evenodd" d="M61.7112 1.73543L61.6676 4.30215L64.193 4.12715L61.7112 1.73543Z" fill="#EAD6B0"/>
<path fill-rule="evenodd" clip-rule="evenodd" d="M84.1781 4.09802L86.718 4.25844L86.6599 1.7063L84.1781 4.09802Z" fill="#EAD6B0"/>
<mask id="mask0_4_177" style="mask-type:luminance" maskUnits="userSpaceOnUse" x="32" y="0" width="84" height="13">
<path d="M69.3454 0.45208C69.0696 0.45208 68.8374 0.670835 68.8374 0.962507V4.448C66.167 4.50633 63.4239 4.60842 60.6809 4.72509V1.28335C60.6809 1.15209 60.6083 1.00626 60.5067 0.918756C60.4051 0.831255 60.2745 0.77292 60.1294 0.787504C57.1251 0.977091 54.0337 1.2396 50.9278 1.53127C50.6666 1.56044 50.4634 1.77919 50.4634 2.0417V5.49802C47.6913 5.80428 45.3111 6.09595 42.6842 6.46054V2.97505C42.6842 2.82921 42.6116 2.68338 42.51 2.59588C42.3939 2.49379 42.2342 2.46462 42.0891 2.47921C40.1298 2.80005 38.0253 3.23756 35.9644 3.67506C34.7598 3.92299 33.6132 4.17091 32.4957 4.38966C32.2635 4.43341 32.0748 4.63758 32.0748 4.88551V8.66267C32.0748 8.73559 32.1038 8.82309 32.1329 8.89601C32.6263 9.85853 33.1343 10.8356 33.6278 11.8127C33.7003 11.9586 33.86 12.0461 34.0196 12.0607C34.0922 12.0607 34.1793 12.0607 34.2518 12.0315C47.7203 9.8877 60.3035 8.83767 72.6835 8.79392C85.6876 8.75017 98.4304 10.3252 113.568 12.7169H113.641C113.771 12.7169 113.887 12.6732 113.974 12.6003C114.09 12.5128 114.148 12.3669 114.148 12.2065V11.7398C114.555 10.9669 114.976 10.1794 115.382 9.40644L115.658 8.86684C115.658 8.86684 115.716 8.721 115.716 8.6335V4.85634C115.716 4.60842 115.542 4.40425 115.31 4.3605L113.757 4.05424C111.159 3.52923 108.474 3.00422 105.919 2.58129C105.774 2.55212 105.629 2.59588 105.513 2.69796C105.397 2.78546 105.339 2.91672 105.324 3.07714L105.252 5.11884L105.281 6.34387C103.147 6.0522 101.144 5.84803 99.04 5.61469C98.4884 5.55635 97.9224 5.49802 97.3564 5.43969V1.98336C97.3564 1.72086 97.1532 1.5021 96.892 1.47293C93.8732 1.18126 90.7818 0.93334 87.6904 0.729169C87.5453 0.729169 87.4147 0.77292 87.2986 0.860422C87.197 0.947924 87.1389 1.09376 87.1389 1.22501V4.63759C84.4684 4.52092 81.7254 4.448 78.9823 4.38966V0.93334C78.9823 0.656251 78.7501 0.422913 78.4744 0.422913H74.6718C72.8867 0.422913 71.087 0.422913 69.2874 0.45208" fill="white"/>
</mask>
<g mask="url(#mask0_4_177)">
<path d="M115.788 0.422821H32.1035V12.7022H115.788V0.422821Z" fill="url(#paint0_linear_4_177)"/>
</g>
<mask id="mask1_4_177" style="mask-type:luminance" maskUnits="userSpaceOnUse" x="33" y="9" width="82" height="8">
<path d="M33.8018 12.5565L37.4011 16.1003C37.4011 16.1003 55.9203 12.9648 73.5832 12.9648C91.2461 12.9648 110.883 16.1003 110.883 16.1003L113.379 13.7523L114.076 12.5565C114.076 12.5565 97.7336 9.05641 75.3248 9.05641C52.916 9.05641 33.8018 12.5565 33.8018 12.5565Z" fill="white"/>
</mask>
<g mask="url(#mask1_4_177)">
<path d="M114.09 9.05641H33.8018V16.1003H114.09V9.05641Z" fill="url(#paint1_linear_4_177)"/>
</g>
<mask id="mask2_4_177" style="mask-type:luminance" maskUnits="userSpaceOnUse" x="32" y="13" width="85" height="24">
<path d="M40.4927 15.94L32.1619 35.8758C32.1619 35.8758 52.9888 33.4257 75.3976 32.9299C97.7773 32.4341 116.413 35.905 116.485 36.0216C116.413 35.8758 107.734 15.7941 107.734 15.7941C107.734 15.7941 92.9298 13.8982 75.2089 13.4462C73.9317 13.417 72.669 13.4024 71.4064 13.4024C55.1223 13.4024 40.4782 15.94 40.4782 15.94" fill="white"/>
</mask>
<g mask="url(#mask2_4_177)">
<path d="M116.485 13.4169H32.162V36.0361H116.485V13.4169Z" fill="url(#paint2_linear_4_177)"/>
</g>
<path fill-rule="evenodd" clip-rule="evenodd" d="M79.8968 32.5362L67.3426 32.6966C67.3426 32.6966 67.5748 27.3298 68.1408 25.5944C68.7069 23.8589 69.8679 21.9193 71.2612 21.0588C72.6545 20.213 74.2946 19.8047 75.804 20.3588C77.3279 20.913 78.3438 21.7297 79.3162 23.4068C80.2886 25.0839 80.6515 26.6881 80.9708 28.5694C81.2755 30.4507 80.9708 32.6237 80.9708 32.6237L79.8968 32.5362Z" fill="#EAD6B0"/>
<path fill-rule="evenodd" clip-rule="evenodd" d="M92.9444 16.9607C90.9416 17.0774 89.1419 18.3316 89.2725 19.9796C89.4177 21.6275 90.3756 29.2402 90.3756 29.2402L98.4451 29.8235L96.9792 19.367C96.9792 19.367 94.9328 16.8441 92.9299 16.9607" fill="#EAD6B0"/>
<mask id="mask3_4_177" style="mask-type:luminance" maskUnits="userSpaceOnUse" x="7" y="39" width="134" height="149">
<path d="M25.2532 43.1968L9.88346 62.5347C15.7324 67.4203 20.0719 73.56 20.9717 81.5372C22.0457 91.0312 17.8514 100.569 14.3101 109.188C10.7833 117.705 7.242 126.499 7.242 135.832C7.242 137.363 7.47422 138.851 7.92414 140.309C11.4364 151.699 29.1719 161.135 39.07 166.429C46.9073 170.6 54.9913 174.537 62.5528 179.175C66.3844 181.523 70.7675 184.177 74.2217 187.502C77.6759 184.177 81.58 181.523 85.4261 179.175C92.9876 174.537 101.072 170.6 108.894 166.429C119.475 160.785 140.722 149.832 140.722 135.847C140.722 126.513 137.181 117.719 133.669 109.202C130.113 100.598 126.02 91.0749 127.08 81.581C127.965 73.6037 132.348 67.6536 138.197 62.7681L122.668 43.1677C107.066 40.3384 91.3331 39.0259 75.615 39.0259C58.7939 39.0259 41.9727 40.5134 25.2677 43.226" fill="white"/>
</mask>
<g mask="url(#mask3_4_177)">
<path d="M140.723 39.0113H7.24213V187.487H140.723V39.0113Z" fill="url(#paint3_radial_4_177)"/>
</g>
<path fill-rule="evenodd" clip-rule="evenodd" d="M28.0834 69.214L26.8208 73.2828L22.7135 73.2682L26.0516 75.7912L24.7599 79.86L28.0834 77.3371L31.4215 79.86L30.1298 75.7912L33.4679 73.2682L29.3606 73.2828L28.0834 69.214Z" fill="white"/>
<path fill-rule="evenodd" clip-rule="evenodd" d="M24.6294 96.9375L23.3667 101.006H19.2449L22.583 103.515L21.3058 107.598L24.6294 105.061L27.953 107.598L26.6758 103.515L29.9994 101.006H25.892L24.6294 96.9375Z" fill="white"/>
<path fill-rule="evenodd" clip-rule="evenodd" d="M20.1447 121.773L18.8821 125.857L14.7602 125.842L18.0983 128.365L16.8211 132.434L20.1447 129.911L23.4683 132.434L22.1911 128.365L25.5147 125.842L21.4074 125.857L20.1447 121.773Z" fill="white"/>
<path fill-rule="evenodd" clip-rule="evenodd" d="M73.6994 164.999L72.4368 169.083H68.3295L71.6676 171.591L70.3759 175.66L73.6994 173.137L77.0376 175.66L75.7458 171.591L79.084 169.083H74.9766L73.6994 164.999Z" fill="white"/>
<path fill-rule="evenodd" clip-rule="evenodd" d="M98.5175 154.922L97.2549 159.005L93.1476 158.991L96.4711 161.514L95.1939 165.583L98.5175 163.06L101.841 165.583L100.564 161.514L103.902 158.991L99.7802 159.005L98.5175 154.922Z" fill="white"/>
<path fill-rule="evenodd" clip-rule="evenodd" d="M48.6491 154.922L49.9263 159.005L54.0336 158.991L50.6955 161.514L51.9727 165.583L48.6491 163.06L45.3255 165.583L46.6027 161.514L43.2791 158.991L47.3864 159.005L48.6491 154.922Z" fill="white"/>
<path fill-rule="evenodd" clip-rule="evenodd" d="M28.9253 141.68L30.188 145.763L34.2953 145.749L30.9717 148.272L32.2489 152.341L28.9253 149.818L25.6017 152.341L26.8789 148.272L23.5408 145.749L27.6626 145.763L28.9253 141.68Z" fill="white"/>
<mask id="mask4_4_177" style="mask-type:luminance" maskUnits="userSpaceOnUse" x="33" y="54" width="82" height="53">
<path d="M33.6276 106.956H114.279C114.947 81.0704 101.464 54.499 73.9606 54.499C46.4575 54.499 32.9745 81.0704 33.6422 106.956" fill="white"/>
</mask>
<g mask="url(#mask4_4_177)">
<path d="M114.932 54.499H32.9599V106.956H114.932V54.499Z" fill="url(#paint4_radial_4_177)"/>
</g>
<path fill-rule="evenodd" clip-rule="evenodd" d="M33.6133 104.258H56.2979V105.236H33.5988V104.273" fill="#C9A52E"/>
<path fill-rule="evenodd" clip-rule="evenodd" d="M33.8019 99.8396L56.4139 104.288L56.2252 105.236L33.7438 100.817C33.7729 100.496 33.7874 100.16 33.8164 99.8396" fill="#C9A52E"/>
<path fill-rule="evenodd" clip-rule="evenodd" d="M34.3097 95.2458L56.5154 104.331L56.138 105.221L34.1646 96.2229C34.2082 95.8875 34.2517 95.5666 34.2952 95.2312" fill="#C9A52E"/>
<path fill-rule="evenodd" clip-rule="evenodd" d="M35.1951 90.2727L56.6025 104.404L56.0655 105.206L34.9774 91.2936C35.05 90.9581 35.1226 90.6081 35.1951 90.2727Z" fill="#C9A52E"/>
<path fill-rule="evenodd" clip-rule="evenodd" d="M36.6902 84.731L56.6897 104.477L55.9931 105.163L36.3564 85.781C36.458 85.431 36.5741 85.081 36.6757 84.731" fill="#C9A52E"/>
<path fill-rule="evenodd" clip-rule="evenodd" d="M39.0704 78.4892L56.7478 104.565L55.935 105.104L38.6059 79.5392C38.7511 79.1892 38.9107 78.8392 39.0704 78.4892Z" fill="#C9A52E"/>
<path fill-rule="evenodd" clip-rule="evenodd" d="M42.8438 71.6056L56.7767 104.681L55.8769 105.046L42.2052 72.5973C42.4084 72.2619 42.6261 71.9265 42.8438 71.6056Z" fill="#C9A52E"/>
<path fill-rule="evenodd" clip-rule="evenodd" d="M48.591 64.6055L56.8056 104.798L55.8477 104.988L47.7637 65.4368C48.0395 65.1597 48.3152 64.8826 48.591 64.6055Z" fill="#C9A52E"/>
<path fill-rule="evenodd" clip-rule="evenodd" d="M56.6171 58.6991L56.7912 104.9H55.8188L55.6447 59.2387C55.964 59.0491 56.2833 58.8741 56.6171 58.6991Z" fill="#C9A52E"/>
<path fill-rule="evenodd" clip-rule="evenodd" d="M66.5443 55.1844L56.7767 105.002L55.8188 104.813L65.5138 55.3886C65.8621 55.3157 66.2105 55.2427 66.5443 55.1698" fill="#C9A52E"/>
<path fill-rule="evenodd" clip-rule="evenodd" d="M77.531 54.6596L56.7187 105.104L55.8188 104.74L76.5005 54.5721C76.8343 54.6012 77.1826 54.6158 77.531 54.645" fill="#C9A52E"/>
<path fill-rule="evenodd" clip-rule="evenodd" d="M88.5322 57.3721L56.6606 105.192L55.8479 104.652L87.6179 56.9783C87.9227 57.095 88.2274 57.2262 88.5322 57.3575" fill="#C9A52E"/>
<path fill-rule="evenodd" clip-rule="evenodd" d="M98.1835 63.5556L56.5734 105.265L55.8767 104.579L97.4578 62.8993C97.7046 63.1035 97.9513 63.3222 98.1835 63.541" fill="#C9A52E"/>
<path fill-rule="evenodd" clip-rule="evenodd" d="M105.571 72.3932L56.4865 105.338L55.935 104.536L105.034 71.5765C105.223 71.839 105.397 72.1161 105.557 72.3932" fill="#C9A52E"/>
<path fill-rule="evenodd" clip-rule="evenodd" d="M110.549 82.7039L56.3846 105.367L56.0073 104.477L110.215 81.7997C110.331 82.1059 110.433 82.4122 110.549 82.7039Z" fill="#C9A52E"/>
<path fill-rule="evenodd" clip-rule="evenodd" d="M113.365 93.6999L56.2543 105.381L56.0511 104.433L113.191 92.752C113.249 93.0728 113.307 93.3791 113.35 93.6999" fill="#C9A52E"/>
<path fill-rule="evenodd" clip-rule="evenodd" d="M114.308 104.944L56.1525 105.381V104.419L114.293 103.981V104.944" fill="#C9A52E"/>
<path fill-rule="evenodd" clip-rule="evenodd" d="M56.3122 90.1999C64.5413 90.1999 71.203 96.7917 71.203 104.915H41.4069C41.4069 96.7917 48.0831 90.1999 56.2977 90.1999" fill="#C9A52E"/>
<path fill-rule="evenodd" clip-rule="evenodd" d="M56.3123 91.4686C63.8593 91.4686 69.984 97.3458 69.984 104.594H42.6406C42.6406 97.3458 48.7653 91.4686 56.3123 91.4686Z" fill="#F9CA12"/>
<mask id="mask5_4_177" style="mask-type:luminance" maskUnits="userSpaceOnUse" x="33" y="105" width="75" height="51">
<path d="M33.5988 105.25C33.5988 107.175 33.6859 109.1 33.8455 111.011C43.1922 111.317 55.2239 110.763 55.5141 112.542C55.5577 112.775 56.0511 112.659 56.4865 112.542C56.9364 112.411 57.3138 112.294 57.0671 112.542C52.7856 117.311 58.0975 125.521 63.4965 129.736C80.3031 142.832 74.1639 150.197 60.5358 153.157C64.556 154.689 69.0262 155.535 73.9317 155.535C89.4611 155.535 100.477 147.178 107.037 135.278C96.9791 131.267 79.9403 129.182 75.9926 120.198C74.6864 117.238 82.7124 111.652 83.975 109.231C86.3988 104.565 70.6372 105.556 71.0726 105.221L33.8745 105.017C34.0052 105.017 33.8745 105.104 33.5988 105.265" fill="white"/>
</mask>
<g mask="url(#mask5_4_177)">
<path d="M107.052 104.55H33.5989V155.535H107.052V104.55Z" fill="url(#paint5_linear_4_177)"/>
</g>
<mask id="mask6_4_177" style="mask-type:luminance" maskUnits="userSpaceOnUse" x="33" y="104" width="42" height="52">
<path d="M33.5987 105.017V104.754C31.5088 115.852 36.3127 133.09 46.3415 143.838C54.5562 152.647 66.2395 156.453 70.9999 155.768C71.3482 155.71 71.6675 155.739 71.9578 155.768C72.4658 155.812 72.8722 155.855 73.0608 155.491C83.4089 135.905 45.6739 113.986 72.4803 105.265C74.3235 104.667 70.9564 104.477 65.4413 104.477C56.1672 104.477 40.7684 105.002 33.5987 105.002" fill="white"/>
</mask>
<g mask="url(#mask6_4_177)">
<path d="M83.4089 104.477H31.5232V156.453H83.4089V104.477Z" fill="url(#paint6_linear_4_177)"/>
</g>
<mask id="mask7_4_177" style="mask-type:luminance" maskUnits="userSpaceOnUse" x="73" y="81" width="42" height="24">
<path d="M109.403 81.5955C99.8672 81.6976 100.752 92.8833 94.1779 93.5833C92.6104 93.7583 88.7353 92.4312 86.0503 92.0083C82.3929 91.4249 75.2668 100.131 73.5833 104.842H114.308C114.279 96.8354 112.886 88.8582 110.157 81.6685C109.925 81.6247 109.693 81.6101 109.461 81.6101H109.417L109.403 81.5955Z" fill="white"/>
</mask>
<g mask="url(#mask7_4_177)">
<path d="M114.308 81.5955H73.5833V104.827H114.308V81.5955Z" fill="url(#paint7_linear_4_177)"/>
</g>
<path fill-rule="evenodd" clip-rule="evenodd" d="M50.2747 133.907C44.9192 122.955 47.6622 116.173 55.1222 111.988C51.726 118.011 56.6751 123.101 63.8447 128.73C58.7795 129.78 54.0191 131.282 50.4633 133.805L50.2747 133.907Z" fill="white"/>
<mask id="mask8_4_177" style="mask-type:luminance" maskUnits="userSpaceOnUse" x="70" y="105" width="45" height="36">
<path d="M76.3699 127.549C82.9881 134.505 95.1213 135.409 104.033 140.047C110.825 130.655 114.236 118.098 114.294 105.484L73.714 105.002C70.013 110.792 68.0102 118.784 76.3699 127.549Z" fill="white"/>
</mask>
<g mask="url(#mask8_4_177)">
<path d="M114.294 105.002H68.0103V140.047H114.294V105.002Z" fill="url(#paint8_linear_4_177)"/>
</g>
<mask id="mask9_4_177" style="mask-type:luminance" maskUnits="userSpaceOnUse" x="92" y="93" width="23" height="12">
<path d="M105.295 93.9479C101.855 94.3562 99.5188 99.9564 92.7991 104.142H114.279C114.235 101.167 114.018 98.1917 113.597 95.2604C111.521 94.9833 108.343 94.2104 106.108 93.9479H105.295Z" fill="white"/>
</mask>
<g mask="url(#mask9_4_177)">
<path d="M114.293 93.9479H92.8132V104.142H114.293V93.9479Z" fill="url(#paint9_linear_4_177)"/>
</g>
<path d="M58.8086 77.687H53.4096V80.5163H58.8086V77.687Z" fill="#F9CA12"/>
<path fill-rule="evenodd" clip-rule="evenodd" d="M75.7312 71.5182C79.2435 71.4453 82.7557 71.562 86.0503 72.7578C88.6047 73.6912 89.5916 73.6474 91.9573 75.8641L88.3724 78.1246C84.7731 74.1141 80.2739 73.4141 75.6296 72.0724C73.6848 71.5036 73.7719 71.562 75.7457 71.5182" fill="white"/>
<path fill-rule="evenodd" clip-rule="evenodd" d="M90.3608 75.8494C93.2635 76.0536 96.5726 73.8515 97.9514 73.589C98.4158 73.5015 99.2866 74.3473 98.8802 74.7411C98.619 75.0036 97.037 75.5724 96.6016 75.8203C96.3113 75.9661 98.8222 74.6536 99.1415 74.7119C99.8526 74.8286 100.274 75.9807 99.9687 76.214C99.9687 76.214 97.7337 76.812 97.066 77.1182C96.442 77.3953 98.9238 76.2578 99.9687 76.214C100.346 76.1994 100.767 77.3807 100.23 77.7161C98.6625 78.737 96.5726 78.7808 94.9035 79.5099C95.5421 82.0183 97.1822 84.8913 97.0951 87.4872C96.9644 91.5414 94.7439 95.3186 94.0618 99.1103C93.786 100.598 93.9747 100.977 93.6699 99.2562C92.7846 94.3123 92.4508 85.533 90.1431 82.2808C89.1997 81.6829 88.5031 81.1725 87.342 80.7641C86.7325 80.5162 85.8181 80.5016 84.6425 80.4141C84.0039 80.5891 82.4945 80.9245 81.8559 81.0996C82.0591 79.9183 82.988 76.5932 85.2085 76.8703L90.3463 75.8494H90.3608Z" fill="white"/>
<path fill-rule="evenodd" clip-rule="evenodd" d="M91.4349 119.046L91.3624 120.359L93.0895 121.628L93.0459 120.14L91.493 118.973L91.4349 119.046ZM90.6512 142.161L90.6077 143.445L90.7528 143.561H92.5234L90.6512 142.161ZM90.7383 139.58L90.6947 140.893L93.728 143.138L93.699 141.768L90.7528 139.565L90.7383 139.58ZM90.8254 136.999L90.7528 138.34L93.67 140.47L93.6119 139.084L90.8108 136.999H90.8254ZM90.9124 134.417L90.8399 135.744L93.5829 137.815V136.386L90.9124 134.417ZM90.9995 131.836L90.9415 133.207L93.5103 135.088L93.4523 133.674L90.9995 131.836ZM91.0866 129.255L91.014 130.611L93.4088 132.405L93.3652 130.946L91.0866 129.24V129.255ZM91.1737 126.673L91.1011 128.088L93.3217 129.707L93.2781 128.249L91.1882 126.688L91.1737 126.673ZM91.2608 124.092L91.1737 125.478L93.2201 126.994L93.1765 125.536L91.2462 124.092H91.2608ZM91.3478 121.511L91.2608 122.925L93.1765 124.326L93.104 122.838L91.3478 121.525V121.511Z" fill="#AB9176"/>
<mask id="mask10_4_177" style="mask-type:luminance" maskUnits="userSpaceOnUse" x="50" y="86" width="13" height="19">
<path d="M50.3472 86.2331V104.258H62.2918L62.2627 86.2331H50.3472Z" fill="white"/>
</mask>
<g mask="url(#mask10_4_177)">
<path d="M62.3063 86.2331H50.3472V104.258H62.3063V86.2331Z" fill="url(#paint10_linear_4_177)"/>
</g>
<mask id="mask11_4_177" style="mask-type:luminance" maskUnits="userSpaceOnUse" x="53" y="72" width="7" height="14">
<path d="M56.2688 72.7578C55.5431 72.7578 55.1658 73.662 54.5997 74.3766C54.0047 75.1203 53.4532 75.5724 53.4532 75.5724L53.3951 82.9517L53.6564 83.2872L53.4967 85.8976L58.5909 85.9706L58.4168 83.2872L59.4763 83.0538L59.3601 80.4871L59.244 76.287C59.244 76.287 57.9814 75.0474 57.4734 74.2891C57.009 73.6036 57.2992 72.7578 56.2543 72.7578H56.2688Z" fill="white"/>
</mask>
<g mask="url(#mask11_4_177)">
<path d="M59.4905 72.7578H53.4093V85.9706H59.4905V72.7578Z" fill="url(#paint11_linear_4_177)"/>
</g>
<path d="M58.5909 77.8183H53.7289V80.0934H58.5909V77.8183Z" fill="#F9CA12"/>
<path fill-rule="evenodd" clip-rule="evenodd" d="M54.7884 16.917C56.7913 17.0337 58.591 18.2879 58.4458 19.9358C58.3007 21.5838 57.3428 29.1965 57.3428 29.1965L49.2733 29.7798L50.7392 19.3233C50.7392 19.3233 52.7711 16.8004 54.7884 16.917Z" fill="#EAD6B0"/>
<path d="M52.7274 20.2859C52.4661 23.0714 52.1178 24.9672 51.8566 27.7673C53.2789 27.6506 54.2803 27.636 55.3833 27.534C55.7316 24.7922 56.0074 22.7651 56.3412 20.0234C55.6446 18.4192 53.8159 18.6379 52.7128 20.3005" fill="#6E4E32"/>
<path d="M95.8614 27.7673C95.6001 24.9818 95.2518 23.0713 94.9906 20.2859C93.9021 18.6379 92.0589 18.4192 91.3622 20.0234C91.7105 22.7651 91.9718 24.7922 92.3346 27.5339C93.4231 27.636 94.4391 27.6506 95.8614 27.7673Z" fill="#6E4E32"/>
<path d="M79.2437 32.2882L79.1711 31.2673C78.8663 27.7089 78.6051 22.0213 74.1639 22.0213C69.7228 22.0213 69.5777 27.9131 69.3019 31.4132L69.2584 32.259L79.2437 32.2882Z" fill="#6E4E32"/>
<path d="M74.1928 20.6359C79.9692 20.6359 80.1143 27.5777 80.5642 31.909C80.5642 31.909 80.6223 32.1278 80.6078 32.1278L80.5497 32.259H81.6672L81.6382 31.9236C81.5366 30.7715 81.4205 29.4881 81.2464 28.2193L83.9023 28.2777L84.2506 31.9819L84.3232 32.2444H85.3537L85.3246 32.0111L84.9763 28.2923C86.5728 28.3506 88.1548 28.4089 89.7513 28.4819L89.9399 29.9548L92.0734 30.159C93.2635 30.2756 94.4536 30.2902 95.6437 30.3923L98.8222 30.6548L98.677 29.0214C100.723 29.1819 102.77 29.3569 104.816 29.561L105.818 33.4695L105.948 34.0674L106.979 34.1111L106.819 33.1194L105.948 29.6923L113.423 30.5965L115.063 34.3299L115.222 34.6945L115.339 34.9862C115.339 34.9862 116.035 35.0882 116.616 35.1612V34.8987H116.601L108.459 16.2608L111.347 16.7129L114.366 14.1461L116.529 9.52312C116.891 8.76477 116.674 5.26469 116.674 4.14175C115.005 3.80633 105.702 1.92504 104.976 2.02713L98.3723 5.00219V1.13752L86.6889 0.204171V0.247922L82.6687 4.02508L80.0853 3.96675V0H68.4019V3.99592L65.8621 4.06884L61.7983 0.247922L50.115 1.19586V4.98761L43.5113 2.04171C42.7421 1.93962 33.5261 3.79175 31.828 4.11259C31.828 5.23553 31.5958 8.72102 31.9586 9.47937C34.6726 15.0503 32.6988 13.0232 37.5318 16.5962L39.7814 16.2462L31.8135 35.0299C31.7554 35.1757 31.799 35.132 31.7554 35.132V35.3945L32.9745 35.2195L33.1342 34.957H33.0761L34.9193 30.684H34.9774L42.4373 29.7944L41.4214 33.8195L41.3778 33.9507L41.3053 34.7382H42.2777L42.7566 32.8424L43.5549 29.6777C45.3981 29.4881 47.2558 29.3277 49.099 29.1819L48.9684 30.6694L52.1468 30.4069C53.3369 30.3048 54.5271 30.2902 55.7026 30.1736L57.8361 29.9694L58.0103 28.5985C59.81 28.511 61.6241 28.4381 63.4093 28.3798L63.1335 31.2965L63.0174 32.6819H64.0624L64.1205 32.2153C64.1205 32.2153 64.135 32.0986 64.1205 32.0986L64.4833 28.336L67.2263 28.2631L67.386 27.2131L58.1409 27.6068C58.3006 26.3526 58.4602 25.0984 58.6344 23.8443L68.5326 23.3922C67.4005 25.8276 67.1247 29.0069 66.8635 31.4861L66.7619 32.4924H67.8359L67.8794 31.9673C68.3294 27.7089 68.6051 20.6504 74.2509 20.6504M89.7658 17.7191C84.8022 17.4275 79.8386 17.2816 74.8604 17.267V13.6211C80.5497 13.6357 86.2535 13.8836 91.9138 14.3357L92.2476 16.3337L91.8267 16.4212C90.9994 16.6399 90.3028 17.092 89.7513 17.7045M88.7498 20.3442C88.8369 21.0879 88.9385 21.8463 89.0401 22.5901C87.5307 22.5171 86.0358 22.4588 84.5264 22.4005L84.1926 18.4775C85.8181 18.5358 87.4436 18.6087 89.0836 18.6962L88.953 18.9587L88.6627 19.615L88.7498 20.3442ZM95.8034 29.0798C94.6133 28.9777 93.4232 28.9631 92.2476 28.8464L91.1736 28.7444L91.0429 27.6943C90.7237 25.1859 90.3898 22.6776 90.0705 20.1838L90.027 19.8192L90.1721 19.4837C90.5495 18.6233 91.2171 17.9379 92.1605 17.69C93.757 17.267 95.2954 18.2879 96.1372 19.5567L96.3113 19.8338L96.3404 20.1546C96.5726 22.6484 96.979 25.1276 97.2112 27.6214L97.3563 29.1965L95.7743 29.0652L95.8034 29.0798ZM97.7046 20.0525L97.6466 19.3962L97.603 19.3379C99.1995 19.4983 100.796 19.6587 102.378 19.8483L103.35 23.6984C101.58 23.5234 99.8236 23.3484 98.053 23.2026C97.9223 22.1671 97.7917 21.1171 97.6901 20.0671M112.944 29.4735L112.755 29.4444C108.053 28.8173 103.336 28.3506 98.59 27.986L98.5464 27.5339C98.4448 26.4401 98.3142 25.3464 98.1691 24.2526C102.567 24.6172 106.95 25.0984 111.304 25.7401L112.929 29.4735H112.944ZM110.81 24.6172L110.622 24.588L104.453 23.8297L103.481 19.9796L109.112 20.7234L110.81 24.6318V24.6172ZM108.619 19.5858L108.43 19.5567L96.8628 18.3171C95.963 17.2233 94.6713 16.4212 93.278 16.3045L92.9587 14.4232C97.6756 14.8316 102.363 15.3712 107.066 16.0566L108.604 19.5858H108.619ZM105.005 3.39799L104.947 5.87721C103.539 5.68762 102.146 5.49803 100.796 5.25011L105.005 3.39799ZM86.6599 1.80837V4.17092C85.8616 4.14175 85.0779 4.11259 84.2797 4.08342L86.6599 1.80837ZM61.7548 1.82296L64.164 4.12717C63.3658 4.15634 62.553 4.18551 61.7548 4.22926V1.82296ZM43.4678 3.48549L47.7928 5.38136C46.3415 5.55637 44.9046 5.74595 43.4678 5.93554V3.48549ZM34.542 11.8273C32.6407 8.18142 33.0471 9.50853 33.0471 5.16261C36.0949 4.57926 39.1428 4.02508 42.1906 3.54382V7.37932C45.2384 6.9564 48.2863 6.57722 51.3341 6.25638V2.33338C54.3819 2.02713 57.4297 1.7792 60.4776 1.58962V5.5272C63.5254 5.38136 66.5732 5.27928 69.6211 5.20636V1.26878C72.6689 1.23961 75.7167 1.22503 78.7645 1.26878V5.22094C81.8124 5.27928 84.8602 5.36678 87.908 5.49803V1.56045C90.9559 1.75004 94.0037 1.99796 97.0515 2.28963V6.16888C100.099 6.48972 103.147 6.88348 106.195 7.3064V3.48549C109.243 3.99592 112.291 4.5501 115.353 5.14803C115.353 9.61062 115.759 8.06475 113.8 11.8857C100.259 9.75646 86.7034 8.51685 72.9882 8.54601C60.0857 8.57518 47.2993 9.75646 34.5565 11.7836L34.5275 11.8127L34.542 11.8273ZM37.8075 15.2837C36.6465 14.4232 35.9208 13.8982 34.7597 13.0378C62.1902 8.67727 85.8761 8.77935 113.553 13.1253L110.955 15.3566L97.5885 13.592C77.6906 11.5065 58.7069 12.0315 37.793 15.2837M41.0585 16.0712C45.8335 15.3857 50.6229 14.8316 55.4124 14.4232L55.1076 16.2899C53.4095 16.1878 51.8275 17.1066 50.7826 18.4337L39.5637 19.615L41.0585 16.0712ZM39.0847 20.7234H39.1428L44.8756 19.9942L43.8742 23.9318L37.3866 24.7193L39.0847 20.7234ZM49.1861 27.5193L49.128 28.1173C44.5273 28.4819 39.912 28.9631 35.3402 29.561L36.9077 25.8276H36.9657C41.1456 25.2443 45.34 24.7776 49.5344 24.413C49.4038 25.4485 49.2732 26.4839 49.1716 27.5193M50.0424 20.0525C49.9408 21.1609 49.8102 22.2546 49.665 23.363C48.0976 23.4942 46.5446 23.6401 44.9772 23.8005L45.9786 19.8629C47.3429 19.7025 48.7217 19.5712 50.0859 19.44L50.0279 20.0525H50.0424ZM57.6765 20.1838C57.3572 22.6921 57.0234 25.1859 56.7041 27.6943L56.5735 28.7444L55.4995 28.8464C54.3239 28.9631 53.1338 28.9777 51.9437 29.0798L50.3617 29.211L50.5068 27.636C50.739 25.1422 51.1454 22.663 51.3776 20.1692L51.4067 19.8483L51.5953 19.5712C52.4371 18.2879 53.9755 17.267 55.572 17.7045C56.5154 17.9525 57.183 18.6379 57.5604 19.4983L57.7055 19.8338L57.662 20.1983L57.6765 20.1838ZM58.0683 17.7629C57.5604 17.1649 56.9073 16.7129 56.1526 16.4649L56.5154 14.3211C62.2337 13.8545 67.981 13.6065 73.7429 13.592V17.2379C68.518 17.267 63.2932 17.4275 58.0683 17.7483M63.8592 22.4442C62.1466 22.5171 60.434 22.5901 58.7069 22.6776C58.8085 21.89 58.9101 21.1025 59.0117 20.315L59.0988 19.5858L58.8085 18.9296L58.7214 18.74C60.5501 18.6379 62.3643 18.5358 64.193 18.4775L63.8592 22.4442ZM64.9332 22.4005L65.267 18.4337C71.203 18.2296 77.139 18.2004 83.0751 18.4046L83.4089 22.3276L79.3886 22.2546C79.6063 22.5901 79.8095 22.9401 79.9837 23.3047L89.1417 23.6838C89.3013 24.938 89.4755 26.1922 89.6351 27.461L81.1012 27.1402L81.1738 27.5922C80.5207 23.4942 78.9968 19.5567 74.2073 19.5567C71.7255 19.5567 70.1145 20.665 69.0696 22.2984L64.9477 22.4151L64.9332 22.4005Z" fill="#6E4E32"/>
<path d="M57.8797 92.6791H55.035V95.4354H57.8797V92.6791Z" fill="#405864"/>
<path d="M61.7548 135.482C62.2773 134.972 62.2773 134.461 61.7548 133.951H59.4472V133.819L59.4617 132.565C59.4617 132.274 59.215 132.026 58.9247 132.026H57.6475C57.3427 132.026 57.1105 132.274 57.1105 132.565V133.951H51.8857C55.3979 131.763 59.6939 130.538 63.6851 129.707L65.9057 129.255L64.1205 127.869C60.9711 125.39 55.3109 121 54.8609 116.727C54.7158 115.313 55.1077 114 55.8043 112.775L57.6475 109.509L54.353 111.346C45.0353 116.552 44.9482 125.157 49.2297 133.965H47.88V133.178H46.0803V133.965H44.0484C43.5259 134.388 43.5259 134.884 44.0484 135.497C49.7232 136.445 55.6302 136.445 61.7258 135.497M54.8609 112.265C51.4793 118.273 56.3123 123.086 63.4384 128.701C58.4022 129.736 53.8305 131.238 50.2892 133.747C45.2095 123.48 47.43 116.436 54.8609 112.279" fill="#405864"/>
<path d="M85.2667 78.0371C84.991 78.0225 84.7587 78.2267 84.7442 78.5038C84.7297 78.7808 84.9329 79.0288 85.1942 79.0433C85.4554 79.0725 85.7021 78.8538 85.7166 78.5767C85.7312 78.2996 85.5425 78.0517 85.2667 78.0225" fill="#405864"/>
<path d="M134.337 82.4704C135.222 74.5369 140.81 69.0681 147.283 64.9409L148.429 64.1971L126.848 36.6632L126.398 36.5757C123.814 36.0799 121.231 35.6278 118.648 35.2194C110.767 34.1548 105.194 33.4402 100.317 32.959C98.9819 32.8423 97.6466 32.7256 96.3114 32.6381H96.1808L94.9762 32.5506L94.6569 32.5215H94.3376C91.3623 32.3027 88.387 32.1569 85.3973 32.0548H85.3682C85.0199 32.0402 84.6571 32.0256 84.2943 32.011C84.004 32.011 83.6992 32.011 83.4089 31.9964C72.4948 31.7631 62.8433 32.1277 55.9785 32.5506C53.5983 32.6965 38.214 34.2277 35.3548 34.5777C35.1952 34.5923 35.05 34.6215 34.8904 34.6361C31.4072 35.1173 24.223 36.2403 21.596 36.6486L0 64.1971L1.14656 64.9409C7.60506 69.0681 13.2073 74.5223 14.0926 82.4704C14.9634 90.2581 10.7835 99.3145 7.85179 106.402C3.91864 115.896 0.261243 125.288 0.261243 135.744C0.261243 137.99 0.595052 140.207 1.26267 142.351C3.41067 149.307 8.75162 154.893 14.3683 159.355C20.9139 164.533 28.519 168.791 35.8918 172.714C43.5549 176.797 51.4938 180.662 58.8957 185.183C63.8303 188.202 70.3903 192.664 73.1189 197.871L74.2219 200L75.3249 197.871C78.0389 192.65 84.6135 188.202 89.5481 185.183C96.95 180.648 104.874 176.797 112.552 172.714C119.925 168.776 127.53 164.533 134.075 159.355C139.692 154.907 145.033 149.307 147.181 142.351C147.834 140.207 148.183 137.99 148.183 135.744C148.183 125.288 144.525 115.911 140.592 106.402C137.66 99.3145 133.48 90.2581 134.351 82.4704M74.2219 197.317C63.8302 177.366 1.5094 165.656 1.5094 135.744C1.5094 105.833 32.9891 83.8413 1.8287 63.9055L22.2782 37.7861C58.9537 31.5881 93.5393 31.5443 126.137 37.7861L146.586 63.9055C115.426 83.8413 146.905 105.833 146.905 135.744C146.905 165.656 84.5845 177.381 74.1929 197.317" fill="#405864"/>
<path fill-rule="evenodd" clip-rule="evenodd" d="M43.4099 5.97925L47.9526 5.38132L43.4099 3.39795V5.97925Z" fill="#EAD6B0"/>
<path d="M134.772 108.692C131.332 100.35 127.182 90.9582 128.212 81.7559C129.054 74.2599 133.103 68.3973 138.821 63.6284L139.75 62.8701L123.35 42.2488L122.886 42.1613C90.6077 36.2987 57.7492 36.9841 25.4567 42.2196L24.9778 42.2926L8.62108 62.8701L9.54994 63.6284C15.2682 68.3973 19.3175 74.2453 20.1593 81.7559C21.1897 90.9582 17.0534 100.35 13.5992 108.692C10.0144 117.355 6.47308 126.207 6.47308 135.715C6.47308 137.349 6.71981 138.968 7.19876 140.513C10.8271 152.282 28.4755 161.733 38.8381 167.245C46.6464 171.402 54.6143 175.295 62.1613 179.918C66.0944 182.325 70.0131 184.993 73.3366 188.187L74.2075 189.033L75.0783 188.187C78.4019 184.993 82.3205 182.325 86.2536 179.918C93.8007 175.295 101.769 171.416 109.577 167.245C120.825 161.251 141.927 150.27 141.927 135.701C141.927 126.192 138.372 117.34 134.801 108.677M108.982 166.151C101.173 170.308 93.133 174.245 85.586 178.854C81.769 181.187 77.6326 183.973 74.1929 187.298C70.7533 183.987 66.6169 181.202 62.8144 178.854C55.2819 174.245 47.2269 170.308 39.4187 166.151C29.5495 160.901 11.8866 151.48 8.38886 140.149C7.93894 138.69 7.72124 137.217 7.72124 135.701C7.72124 126.382 11.248 117.632 14.7603 109.144C18.3016 100.583 22.4524 91.0603 21.4074 81.6101C20.5221 73.662 16.1826 67.5368 10.3627 62.6805L19.0998 51.699L40.5362 72.9474C26.9516 95.9604 30.2026 132.842 50.6666 148.957C57.4734 154.324 65.5284 156.847 74.2075 156.847C89.0693 156.847 99.9689 149.511 106.921 138.749L125.092 156.76C119.402 160.668 113.292 163.862 108.982 166.166M77.8794 54.8491C77.9955 54.8491 78.1551 54.8782 78.3148 54.9074C81.3336 55.2137 84.1637 55.8553 86.8052 56.8033H86.8342C87.0809 56.8908 87.3567 56.9929 87.6615 57.1095C87.705 57.1241 87.7485 57.1387 87.7921 57.1679C88.0678 57.2845 88.3726 57.4012 88.6919 57.547C89.0112 57.6929 88.8225 57.6054 88.8951 57.6346C88.9822 57.6783 89.0547 57.7075 89.1563 57.7512C89.2144 57.7658 89.287 57.8096 89.3595 57.8533C92.0445 59.0783 94.5263 60.6096 96.7759 62.418C96.8049 62.4471 96.834 62.4617 96.8485 62.4763C97.2113 62.7534 97.7338 63.2055 98.3143 63.7305C98.4595 63.8618 98.6191 63.993 98.7643 64.1389C98.8223 64.1826 98.8513 64.2264 98.8949 64.2701C101.173 66.4139 103.22 68.8348 104.991 71.5036C105.005 71.5328 105.02 71.5473 105.034 71.5619C105.063 71.6057 105.092 71.6494 105.121 71.6932C105.324 71.9994 105.513 72.3057 105.644 72.5099C105.571 72.3932 105.499 72.2765 105.426 72.1599L105.644 72.5099C105.644 72.5099 105.658 72.5536 105.673 72.5682C105.702 72.5974 105.716 72.6411 105.731 72.6703C107.284 75.1641 108.633 77.8329 109.765 80.6475H109.446C104.758 80.6913 102.422 83.1413 100.695 85.8539C100.636 85.9414 100.172 86.7727 99.8383 87.2977C99.069 88.6394 98.3724 89.9373 97.5306 90.9436C97.7048 90.2873 97.8354 89.6311 97.937 88.9456C97.9805 88.6394 98.0096 88.3331 98.0386 88.0414C98.0386 87.6477 98.0676 86.9477 98.0676 86.9477C97.995 84.556 96.834 82.383 96.1083 80.1225C97.6322 79.6413 99.1997 79.5392 100.695 78.5767C101.609 77.9787 101.594 76.6225 101.014 75.8058C101.014 75.8058 100.927 75.2953 100.84 75.0912C100.782 74.9599 100.622 74.7266 100.506 74.537C100.303 74.2745 100.07 74.0557 99.7947 73.8953C99.4464 73.0932 98.532 72.4661 97.6612 72.6265C96.9646 72.7578 96.1228 73.1953 95.4697 73.5016C94.6134 73.9099 93.7571 74.3036 92.8573 74.6099C92.596 74.6974 92.3203 74.7849 92.059 74.8578C91.0866 74.1578 90.0707 73.5307 88.9967 72.9911C88.6484 72.8161 88.2855 72.6411 87.676 72.3932C87.3567 72.2619 87.0374 72.1307 86.7036 72.014C84.4975 71.2119 82.2334 70.789 79.9258 70.614C79.1566 70.5411 78.4164 70.5411 77.3569 70.5119H76.1232C75.296 70.5265 73.743 70.3223 73.5834 71.5036C73.4237 72.6703 74.9476 72.889 75.7459 73.1224C75.7749 73.1224 75.8185 73.137 75.8475 73.1515C76.4861 73.3265 76.0507 73.2099 78.1116 73.7641C80.3757 74.3766 82.5237 74.9891 84.483 76.0683C83.3074 76.2724 82.4511 77.1183 81.9431 78.285L81.7254 78.81C81.4642 79.4663 81.2755 80.21 81.1594 80.8371C81.0433 81.4642 80.9417 82.1497 80.9417 82.1497L82.5527 81.6976C83.2203 81.5226 84.0331 81.4205 84.7007 81.2601C85.3973 81.333 86.2536 81.4351 86.8777 81.683H86.9358C87.4873 81.8871 88.0243 82.1059 88.5468 82.3538C88.5903 82.3684 88.6339 82.383 88.6774 82.4122C89.3595 82.7184 89.6208 82.9372 89.7659 83.1122C89.911 83.2872 89.7949 83.1705 89.824 83.1997C89.824 83.2143 89.8385 83.2288 89.853 83.2434V83.2726C90.6948 84.8039 91.1592 87.3852 91.4495 89.5144C91.7397 91.6436 91.4495 89.6165 91.464 89.6602V89.6894C91.493 89.9227 91.5365 90.2873 91.5801 90.6811C91.6236 91.0748 91.6672 91.4394 91.7107 91.7603L91.7688 92.2853C91.1592 92.1249 90.5787 91.9644 90.1433 91.8478C89.9691 91.7894 89.824 91.7603 89.7224 91.7311H89.6933L89.5917 91.7019C89.0693 91.5561 87.9953 91.2936 87.4147 91.1623C87.0519 91.0894 86.689 91.0019 86.3262 90.9436C84.6572 90.6811 82.872 91.7603 81.5948 92.7228C81.203 93.0291 80.7966 93.3499 80.4192 93.6999C79.1566 94.8958 78.4599 95.6249 77.7487 96.4562C77.6036 96.6166 77.473 96.7916 77.3424 96.9521C76.6602 97.7833 76.0942 98.5417 75.4556 99.4313C75.1799 99.8104 74.9186 100.204 74.6719 100.613C74.3526 101.138 74.0768 101.619 73.8736 101.983C73.5253 102.625 73.2205 103.252 72.9593 103.879H63.1772V85.6643H59.3602L59.2296 83.5205H60.3616V79.4954H59.3747V78.2121H60.1584V76.8995C60.1584 75.6162 59.2731 74.6682 58.1701 74.187L58.2136 73.7932C58.2136 72.962 57.6766 72.2619 56.9219 72.0286C56.7478 71.9849 56.5736 71.9557 56.3994 71.9557C56.2253 71.9557 56.0656 71.9557 55.9495 71.9703C55.0932 72.1453 54.4546 72.9036 54.4546 73.7932L54.4982 74.2016C53.4097 74.6974 52.5679 75.6162 52.5679 76.885V78.1975H53.3516V79.4808H52.3647V83.5059H53.5693L53.4387 85.6497H49.6216V103.879H33.9471C33.9471 103.631 33.9471 103.383 33.9616 103.136C33.9326 102.931 33.9181 102.64 33.9471 102.202C34.0051 101.225 34.0342 100.963 34.1358 99.7667C34.1358 99.5771 34.1648 99.3875 34.1793 99.1979C34.1793 99.0667 34.2083 98.9208 34.2083 98.7458C34.368 96.6312 34.4696 96.0041 34.7744 94.0499C34.8324 93.7291 34.8759 93.4228 34.934 93.1311C35.1807 91.6582 35.4275 90.5207 35.6742 89.4852C35.8048 88.931 35.9209 88.479 36.0225 88.0269C36.037 87.9685 36.0515 87.9248 36.0661 87.8664C36.2112 87.3414 36.3563 86.7873 36.574 86.0289C36.8208 85.1685 37.0675 84.4101 37.3432 83.5934C37.5464 83.0101 37.7496 82.4413 37.9673 81.8726C37.9818 81.8142 37.9963 81.7705 38.0254 81.7121C38.6349 80.0204 38.7365 79.7579 39.5057 78.1683C39.5493 78.0808 39.5928 77.9933 39.6219 77.9058C40.4636 76.112 41.3925 74.3766 42.4084 72.7286C42.4084 72.7286 42.4084 72.714 42.423 72.6994C43.0035 71.5911 44.0775 70.1765 45.0644 68.8931C45.2241 68.689 45.3837 68.4848 45.5434 68.2806C45.5869 68.2223 45.6304 68.1639 45.674 68.1202C46.806 66.6618 47.7494 65.641 49.0266 64.4597C49.0556 64.4305 49.0846 64.4014 49.1137 64.3868C50.7682 62.8117 52.5534 61.3971 54.4837 60.1575C54.5127 60.1284 54.5707 60.0992 54.5998 60.0846C55.8769 59.2242 55.3109 59.6325 56.8348 58.7721C57.0671 58.6408 57.2557 58.5387 57.4154 58.4658C59.4473 57.4304 61.5952 56.5845 63.8739 55.9428C63.9174 55.9283 63.9609 55.9137 63.99 55.8991C65.0785 55.5783 65.9348 55.4033 66.7766 55.2574C69.0987 54.8053 71.537 54.572 74.0914 54.572H74.5413C75.0492 54.572 75.4992 54.5866 76.0942 54.6303C76.37 54.6303 76.5877 54.6449 76.6167 54.6449C76.9505 54.6741 77.3279 54.6887 77.7778 54.7178M33.889 104.886H34.9485H34.905H72.2917C70.9855 105.294 69.8244 105.731 68.8084 106.213L68.5037 106.358C68.1844 106.519 67.8941 106.665 67.6038 106.825C67.27 107.015 66.9362 107.204 66.6459 107.409C63.6271 109.392 62.4515 111.798 62.408 114.54C62.408 115.765 62.6257 117.063 63.0031 118.419C63.3804 119.775 63.1337 118.857 63.1337 118.857V118.9C63.2933 119.382 63.4675 119.878 63.6562 120.373C64.2657 121.992 65.0204 123.553 65.8042 125.113C66.3702 126.221 66.9652 127.33 67.5458 128.438C70.1147 133.265 72.9593 138.311 74.1059 143.722C74.788 146.916 74.8315 150.197 73.6995 153.332C72.5674 156.468 73.685 153.391 73.685 153.391C73.5689 153.741 73.4237 154.076 73.2786 154.412C73.1625 154.674 73.0464 154.937 72.9158 155.185H72.8577C71.8708 155.155 70.8694 155.097 69.8824 154.98C64.5415 154.426 59.3457 152.734 54.7594 149.862C39.9412 140.586 33.3956 121.584 33.9035 104.958C34.4115 88.3331 33.9035 104.9 33.9035 104.9L33.889 104.886ZM53.9031 88.2748V86.656H55.5431V88.2748H57.1832V86.656H58.8232V88.2748H60.4632V86.656H62.1032V90.1852H50.6521V86.656H52.2921V88.2748H53.9321H53.9031ZM56.3123 74.8141C57.8217 74.8141 59.0554 75.7328 59.0554 76.8558V77.1329H53.5548V76.8558C53.5548 75.7328 54.7884 74.8141 56.3123 74.8141ZM55.4415 73.7641C55.4415 73.312 55.8189 72.9328 56.2688 72.9328C56.7187 72.9328 57.1106 73.2974 57.1106 73.7641V73.8516C56.8348 73.7932 56.5736 73.7786 56.3123 73.7786C56.0366 73.7786 55.7318 73.8078 55.4415 73.8661V73.7641ZM58.2426 78.1683V79.4517H56.8929V78.1683H58.2426ZM55.7608 79.4517H54.3821V78.1683H55.7608V79.4517ZM59.2731 82.4267H53.3661V80.4871H59.2731V82.4267ZM58.2572 85.606H54.4401L54.5707 83.4622H58.1265L58.2572 85.606ZM62.0742 96.2374H50.6231V91.2644H62.0742V96.2374ZM62.0742 97.3166V103.719H57.8363V100.219C57.8363 99.2709 57.1832 98.3958 56.2978 98.3958C55.4125 98.3958 54.7594 99.2709 54.7594 100.219V103.719H50.6231V97.3166H62.0742ZM74.0768 155.185C77.5601 147.82 74.9041 140.397 71.3483 133.353C69.3164 129.299 66.9798 125.376 65.3397 121.657C64.2657 119.221 63.1337 116.1 63.5691 113.359C63.8884 111.404 65.064 109.552 66.7185 108.517C68.1553 107.627 69.5196 106.956 71.1016 106.373C72.6835 105.79 71.2612 106.315 71.2612 106.315L71.8853 106.096C67.749 113.884 69.3019 121.336 75.7023 128.044C79.3452 131.865 84.5411 133.922 89.9256 135.686L89.6353 144.247H94.4973V143.386C94.4392 141.286 94.3812 139.186 94.3086 137.086C97.4871 138.107 100.607 139.186 103.394 140.615C96.7178 149.395 86.9503 155.185 74.0768 155.185ZM94.1925 121.161L95.789 122.794L96.3986 122.211L94.6279 120.388C95.9341 121.073 97.0226 121.992 97.966 123.188L98.0386 123.436L98.0096 123.713L97.6467 127.403L95.8035 125.478L95.6003 125.332L95.5132 125.026C95.1359 123.596 94.8166 122.342 94.207 121.132M94.8021 125.653L94.0329 127.417C93.9748 125.784 93.9313 124.151 93.8877 122.517C94.2506 123.451 94.4828 124.413 94.7731 125.492L94.8021 125.551V125.653ZM95.76 120.023L97.4435 120.578L97.7048 119.79L95.6729 119.119C96.6163 119.163 97.5596 119.323 98.445 119.6L98.6336 119.688L98.7352 119.863L100.753 123.407L98.9239 123.028L98.8949 122.984C97.995 121.759 96.9646 120.782 95.76 120.023ZM98.9965 118.813L98.8804 118.842L98.7788 118.813C97.7483 118.463 96.6598 118.288 95.5568 118.259L97.8499 117.865L97.7048 117.034L95.0053 117.486C95.8035 117.005 96.6743 116.611 97.4 116.319L97.6177 116.217L97.937 116.261L101.856 116.873L98.9965 118.798V118.813ZM98.4304 111.157L97.429 111.565L98.532 110.748L98.4304 111.157ZM98.1547 112.177L97.3129 115.327V115.459L97.1678 115.517C96.0357 115.969 94.6715 116.611 93.5539 117.471L96.2099 114.438L95.5713 113.884L93.2346 116.552C93.5684 115.575 94.0184 114.642 94.6134 113.723L94.744 113.548L94.9327 113.475L98.1547 112.163V112.177ZM90.6512 140.718L90.7093 139.434L93.6555 141.636L93.6845 142.963L90.6657 140.718H90.6512ZM92.4799 143.401H90.7238L90.5787 143.284L90.6222 142.001L92.4799 143.386V143.401ZM93.0605 122.751L93.0895 124.092L91.2608 122.721L91.3043 121.438L93.0605 122.751ZM91.3624 120.155L91.3914 118.988L91.4495 118.915L93.0024 120.082L93.0314 121.423L91.3624 120.169V120.155ZM93.1475 125.448L93.1911 126.79L91.1882 125.303L91.2318 124.019L93.1475 125.448ZM93.2346 128.146L93.2782 129.503L91.1011 127.884L91.1447 126.601L93.2346 128.161V128.146ZM93.3217 130.859L93.3652 132.215L91.0141 130.451L91.0576 129.167L93.3217 130.859ZM93.4088 133.557L93.4523 134.899L90.927 133.003L90.9705 131.719L93.4233 133.542L93.4088 133.557ZM93.4959 136.255L93.5249 137.597L90.8254 135.57L90.8689 134.286L93.4814 136.24L93.4959 136.255ZM93.5684 138.953L93.5975 140.295L90.7383 138.151L90.7818 136.867L93.5684 138.938V138.953ZM93.8877 113.329C93.3507 114.146 92.9298 114.992 92.596 115.867V112.804H91.7542V116.523C91.3769 115.371 90.8544 114.263 90.1578 113.213L90.1287 112.994L92.001 109.406L93.9313 113.125V113.242L93.9022 113.344L93.8877 113.329ZM90.8399 116.45L88.5177 114.088L87.9082 114.671L90.956 117.792H90.927C89.7659 116.786 88.1984 116.027 86.9358 115.532L86.7906 115.327L85.9198 112.075L89.0693 113.359L89.2724 113.446L89.3885 113.607C89.9981 114.511 90.4625 115.459 90.8109 116.436M85.6441 111.054L85.5425 110.675L86.5874 111.448L85.6441 111.054ZM86.152 116.275L86.3843 116.232L86.602 116.305L88.9822 117.457L86.602 117.048L86.4568 117.88L88.75 118.273C87.676 118.317 86.602 118.492 85.5715 118.828H85.3393L82.4366 116.873L86.1375 116.29L86.152 116.275ZM85.6151 119.863L85.7457 119.703L85.9053 119.6C86.8197 119.309 87.7776 119.148 88.75 119.105L86.6165 119.805L86.8922 120.607L88.6193 120.023C87.4728 120.753 86.4713 121.701 85.586 122.838L85.4989 122.926L85.4264 123.013L83.5977 123.392L85.6151 119.848V119.863ZM86.3843 123.203C87.2551 122.109 88.242 121.219 89.3885 120.548L87.8211 122.094L88.4161 122.692L90.39 120.753C89.5917 122.123 89.1709 123.48 88.75 125.128C88.3291 126.776 88.6774 125.317 88.6774 125.317L88.5468 125.463L86.7036 127.388L86.3407 123.698V123.436L86.3843 123.217V123.203ZM89.6063 125.201C89.8385 124.296 90.0707 123.48 90.39 122.707L90.2303 127.228L89.5337 125.653V125.478L89.6063 125.201ZM94.2941 135.963C94.2215 133.776 94.149 131.574 94.0764 129.386L94.8166 127.665L94.7876 130.072H95.6293L95.6584 127.782L96.4856 129.94L97.2839 129.649L96.4131 127.344L98.0531 129.051L98.6772 128.467L98.3869 128.176L98.6336 125.696L99.2867 128.103L100.114 127.884L99.4754 125.536L100.854 127.519L101.551 127.038L99.9979 124.836L102.131 126.192L102.581 125.492L100.578 124.209L101.261 124.355L101.507 124.778L102.001 124.501L102.915 124.69L103.089 123.859L102.843 123.815L103.351 123.319L101.304 121.19L103.815 122.648L104.25 121.934L101.478 120.33L104.57 121.015L104.758 120.198L102.218 119.63L104.816 119.542L104.787 118.711L101.885 118.813L104.671 117.909L104.41 117.107L101.638 118.011L103.046 117.063L104.091 116.363L103.612 115.663L102.843 116.173L100.767 115.852L103.467 115.561L103.38 114.73L100.332 115.065L103.089 113.884L102.755 113.111L99.9834 114.307L102.262 112.352L101.71 111.725L99.4319 113.679L101.057 111.098L100.346 110.661L100.317 110.719L100.201 110.442L99.3883 110.777L99.5044 110.34L99.1997 110.267L99.7512 109.859L99.2432 109.173L96.6017 111.113L98.5611 108.575L97.8934 108.065L95.76 110.821L96.9356 107.584L96.1373 107.292L95.1504 110.019L95.4116 107.131L94.5699 107.059L94.2941 110.238L93.67 107.073L92.8428 107.234L93.4668 110.369L92.4654 108.459L92.8428 107.744L92.0881 107.35L92.001 107.525L91.9719 107.467L91.2172 107.846L91.522 108.444L90.5932 110.238L91.2172 107.102L90.39 106.942L89.7659 110.092L89.4756 106.913L88.6339 106.986L88.8951 109.859L87.9082 107.131L87.1099 107.409L88.2855 110.646L86.152 107.875L85.4699 108.386L87.4292 110.923L84.7878 108.984L84.2798 109.654L84.9765 110.165L84.6136 110.252L84.7007 110.602L83.8299 110.252L83.6702 110.661L83.0462 111.04L84.6717 113.621L82.4076 111.667L81.8561 112.294L84.1347 114.248L81.3626 113.052L81.0288 113.825L83.7864 115.007L80.7385 114.671L80.6514 115.502L83.3509 115.794L81.4932 116.086L80.7676 115.605L80.3031 116.305L81.0433 116.8L81.0723 117.005L81.29 116.975L82.7559 117.952L79.9838 117.048L79.7226 117.85L82.5092 118.755L79.6065 118.653L79.5774 119.484L82.1899 119.571L79.65 120.14L79.8387 120.957L82.9301 120.271L80.1725 121.875L80.5934 122.59L83.1187 121.132L81.0578 123.261L81.5658 123.757L81.3191 123.801L81.4932 124.632L82.3931 124.442L82.8865 124.719L83.1332 124.296L83.8154 124.151L81.8125 125.434L82.2624 126.134L84.3959 124.778L82.843 126.98L83.5396 127.461L84.9184 125.478L84.2943 127.826L85.1216 128.044L85.7602 125.638L86.0069 128.117L85.7166 128.409L86.3407 128.992L87.9807 127.286L87.1099 129.59L87.9082 129.882L88.7354 127.724L88.7645 130.013H89.6063L89.5772 127.592L90.2449 129.124L90.0562 134.505C84.8894 132.784 79.9838 130.815 76.5732 127.213C68.7359 118.988 70.0566 111.448 73.3076 105.775C76.5586 100.102 73.3076 105.746 73.3076 105.746V105.586L73.4382 105.338V105.279H73.4673L73.5979 105.031V105.002L73.7285 104.798V104.769H75.6298L114.149 105.221C114.09 117.777 110.68 130.305 103.917 139.653C100.912 138.093 97.5596 136.955 94.1635 135.876M100.796 121.978L102.465 123.713L101.681 123.553L100.782 121.978H100.796ZM98.5901 113.111L98.9674 111.682L99.6496 111.404L98.5756 113.111H98.5901ZM85.1796 113.111L84.0331 111.288L84.7733 111.594L85.1796 113.111ZM83.2348 121.978L82.3495 123.553L81.5803 123.713L83.2494 121.978H83.2348ZM114.12 103.879H92.7266C99.9253 99.4021 102.073 93.2624 105.977 93.7291C108.198 93.9916 111.362 94.7645 113.423 95.0416C113.829 97.9292 114.061 100.875 114.105 103.821V103.894L114.12 103.879ZM112.784 93.8749C111.754 93.6999 110.723 93.4957 109.693 93.2916C108.517 93.0582 107.298 92.8249 106.094 92.679C105.629 92.6207 105.179 92.6353 104.729 92.7228C102.552 93.1311 100.695 95.2749 99.2577 96.8062C97.0371 99.1833 94.9472 101.24 92.1606 102.975L90.4916 103.879L73.9172 103.675C76.0652 98.8625 82.5672 91.2207 85.9924 91.7603C87.6614 92.0228 89.8965 92.7082 91.7252 93.1457C91.9284 95.0999 92.1026 97.0833 92.4509 98.9938C92.567 99.6792 92.5235 101.065 93.6991 101.021C94.8601 100.977 94.7295 99.5917 94.8456 98.9063C95.2375 96.7625 96.0502 94.7499 96.7469 92.6645C100.956 89.9082 101.115 81.4788 109.272 81.3913C109.519 81.3913 109.765 81.4059 110.012 81.4496C111.507 85.4018 112.61 89.6019 113.292 93.9187L112.799 93.8457L112.784 93.8749ZM85.1506 76.8558L90.0271 75.8495C92.9153 76.0537 96.297 73.662 97.6758 73.4141C97.9805 73.3557 98.445 73.6766 98.6191 74.012L95.7309 75.3683L96.0938 76.1266L99.2142 74.6391C99.577 74.9307 99.7947 75.4703 99.7512 75.7766L96.3986 76.5787L96.5872 77.3954L100.129 76.5641C100.216 76.885 100.187 77.2641 99.9253 77.4391C98.3579 78.4454 96.2824 78.4892 94.6279 79.2329C95.252 81.7413 96.892 84.5997 96.8049 87.181C96.8049 87.4581 96.7759 87.7206 96.7469 87.9831L94.9182 84.1622L94.149 84.5268L96.5292 89.4123C96.355 90.3165 96.1083 91.2061 95.818 92.0811L93.9603 85.7372L93.1475 85.9706L95.3681 93.452C94.7585 95.2312 94.1054 96.9958 93.7861 98.7604C93.5249 100.233 93.7861 100.569 93.4814 98.8479C92.596 93.9187 92.5525 85.2122 90.2449 81.9746C89.3015 81.3767 88.2565 80.8809 87.0954 80.4725C86.4859 80.2246 85.586 80.0496 84.4249 79.9621C83.7863 80.1225 82.5962 80.385 81.9722 80.56C82.1754 79.3788 82.9301 76.5787 85.1506 76.8558ZM75.8765 71.8536C73.9462 71.2994 74.0188 71.3432 75.9926 71.2994C79.4759 71.2265 82.901 71.5473 86.1666 72.7286C87.5744 73.239 88.9677 73.9099 90.3319 74.7995H90.1142L89.9691 74.7849L85.9779 75.6016C82.9301 73.5307 79.4323 72.8745 75.8765 71.8536ZM126.253 155.505L107.588 137.013C121.362 113.898 117.893 76.5495 97.0662 60.5367C90.3464 55.3595 82.4511 52.8949 73.9607 52.8949C59.0844 52.8949 48.1558 60.3325 41.2038 71.2119L19.9126 50.1094L25.4422 43.153C57.6331 37.932 90.2884 37.2612 122.436 43.0947L137.805 62.418C131.986 67.2889 127.646 73.3995 126.761 81.3475C125.701 90.8123 129.867 100.321 133.393 108.881C136.906 117.369 140.432 126.119 140.432 135.438C140.432 143.182 133.872 150.007 126.238 155.491" fill="#405864"/>
<defs>
<linearGradient id="paint0_linear_4_177" x1="21.2608" y1="21.5195" x2="111.881" y2="21.5195" gradientUnits="userSpaceOnUse">
<stop stop-color="#D7B46D"/>
<stop offset="0.51" stop-color="#ECD8B0"/>
<stop offset="0.52" stop-color="#EBD7AE"/>
<stop offset="1" stop-color="#D7B46B"/>
</linearGradient>
<linearGradient id="paint1_linear_4_177" x1="39.0262" y1="2.14479" x2="120.482" y2="2.14479" gradientUnits="userSpaceOnUse">
<stop stop-color="#B69544"/>
<stop offset="0.51" stop-color="#C6A765"/>
<stop offset="1" stop-color="#B79542"/>
</linearGradient>
<linearGradient id="paint2_linear_4_177" x1="31.9733" y1="24.1825" x2="117.716" y2="24.1825" gradientUnits="userSpaceOnUse">
<stop stop-color="#DAB772"/>
<stop offset="0.51" stop-color="#DFC18A"/>
<stop offset="1" stop-color="#DAB772"/>
</linearGradient>
<radialGradient id="paint3_radial_4_177" cx="0" cy="0" r="1" gradientUnits="userSpaceOnUse" gradientTransform="translate(71.6364 111.863) scale(75.9432 75.2472)">
<stop stop-color="#03A568"/>
<stop offset="0.39" stop-color="#029C5E"/>
<stop offset="1" stop-color="#008647"/>
</radialGradient>
<radialGradient id="paint4_radial_4_177" cx="0" cy="0" r="1" gradientUnits="userSpaceOnUse" gradientTransform="translate(49.3503 86.9462) scale(54.8217 54.2993)">
<stop stop-color="#DFEFDF"/>
<stop offset="0.14" stop-color="#D5ECDF"/>
<stop offset="0.36" stop-color="#BDE4E2"/>
<stop offset="0.65" stop-color="#94D6E6"/>
<stop offset="0.98" stop-color="#5DC5EB"/>
<stop offset="1" stop-color="#5AC4EC"/>
</radialGradient>
<linearGradient id="paint5_linear_4_177" x1="17.6266" y1="153.795" x2="96.352" y2="153.795" gradientUnits="userSpaceOnUse">
<stop stop-color="white"/>
<stop offset="0.18" stop-color="#FEFAF5"/>
<stop offset="0.48" stop-color="#FDEEDD"/>
<stop offset="0.85" stop-color="#FADAB5"/>
<stop offset="1" stop-color="#FAD2A3"/>
</linearGradient>
<linearGradient id="paint6_linear_4_177" x1="26.8865" y1="141.148" x2="79.8664" y2="141.148" gradientUnits="userSpaceOnUse">
<stop stop-color="#00AEB3"/>
<stop offset="0.18" stop-color="#09AFB4"/>
<stop offset="0.47" stop-color="#21B4B9"/>
<stop offset="0.84" stop-color="#49BDC2"/>
<stop offset="1" stop-color="#5DC1C6"/>
</linearGradient>
<linearGradient id="paint7_linear_4_177" x1="97.2304" y1="81.5442" x2="97.2304" y2="106.272" gradientUnits="userSpaceOnUse">
<stop stop-color="#15A476"/>
<stop offset="0.33" stop-color="#119B6C"/>
<stop offset="0.87" stop-color="#068554"/>
<stop offset="1" stop-color="#047F4D"/>
</linearGradient>
<linearGradient id="paint8_linear_4_177" x1="55.0461" y1="146.361" x2="103.227" y2="146.361" gradientUnits="userSpaceOnUse">
<stop stop-color="#E9B68A"/>
<stop offset="0.31" stop-color="#E3AE80"/>
<stop offset="0.81" stop-color="#D59A68"/>
<stop offset="1" stop-color="#CF925D"/>
</linearGradient>
<linearGradient id="paint9_linear_4_177" x1="1883.8" y1="774.87" x2="1883.8" y2="852.212" gradientUnits="userSpaceOnUse">
<stop stop-color="#15A476"/>
<stop offset="0.33" stop-color="#119B6C"/>
<stop offset="0.87" stop-color="#068554"/>
<stop offset="1" stop-color="#047F4D"/>
</linearGradient>
<linearGradient id="paint10_linear_4_177" x1="58.2779" y1="68.7905" x2="70.2347" y2="68.7905" gradientUnits="userSpaceOnUse">
<stop stop-color="#DAD9D8"/>
<stop offset="0.34" stop-color="#E1E1E1"/>
<stop offset="0.9" stop-color="#F4F7F9"/>
<stop offset="1" stop-color="#F9FCFF"/>
</linearGradient>
<linearGradient id="paint11_linear_4_177" x1="279.92" y1="749.166" x2="305.464" y2="749.166" gradientUnits="userSpaceOnUse">
<stop stop-color="#DAD9D8"/>
<stop offset="0.34" stop-color="#E1E1E1"/>
<stop offset="0.9" stop-color="#F4F7F9"/>
<stop offset="1" stop-color="#F9FCFF"/>
</linearGradient>
</defs>
</svg>
